<svg xmlns="http://www.w3.org/2000/svg" width="108" height="108" viewBox="0 0 512 512">
    <defs>
        <clipPath id="clip_path_0">
            <path d="M256,256m-200,0a200,200 0,1 1,400 0a200,200 0,1 1,-400 0" />
        </clipPath>
    </defs>
    <path fill="#f86734" d="M0,0 L512,0 L 512,512 L0,512z" />
    <g transform="translate(256,256) scale(0.95,0.95) translate(-256,-256)">
        <path fill="#073042" d="M256,256m-200,0a200,200 0,1 1,400 0a200,200 0,1 1,-400 0" />
        <g clip-path="url(#clip_path_0)">
            <g transform="translate(256,256) scale(1.16,1.16) translate(-256,-256)">
                <path fill="#3ddc84" d="M195.27,187.64 l2.25,-6.69c13.91,78.13 50.84,284.39 50.84,50.33 0,-0.97 0.72,-1.81 1.62,-1.81h12.69c0.9,0 1.62,0.83 1.62,1.8 -0.2,409.91 -69.03,-43.64 -69.03,-43.64z" />
                <path fill="#ffffff" d="M158.77,180.68 l-33.17,57.45c-1.9,3.3 -0.77,7.52 2.53,9.42 3.3,1.9 7.52,0.77 9.42,-2.53l33.59,-58.17c54.27,24.33 116.34,24.33 170.61,0l33.59,58.17c1.97,3.26 6.21,4.3 9.47,2.33 3.17,-1.91 4.26,-5.99 2.47,-9.23L354.12,180.68C411.08,149.71 450.03,92.04 455.73,23.91H57.17c5.7,68.12 44.65,125.79 101.61,156.76z" />
                <path fill="#3ddc84" d="M250.26,187.66L262.17,187.66A2.13,2.13 0,0 1,264.3 189.78L264.3,217.85A2.13,2.13 0,0 1,262.17 219.98L250.26,219.98A2.13,2.13 0,0 1,248.14 217.85L248.14,189.78A2.13,2.13 0,0 1,250.26 187.66z" />
                <path fill="#3ddc84" d="M250.12,170.29L262.32,170.29A1.98,1.98 0,0 1,264.3 172.26L264.3,176.39A1.98,1.98 0,0 1,262.32 178.37L250.12,178.37A1.98,1.98 0,0 1,248.14 176.39L248.14,172.26A1.98,1.98 0,0 1,250.12 170.29z" />
                <path fill="#3ddc84" d="M256.22,126.57c-6.69,0 -12.12,5.27 -12.12,11.77v14.52c0,1.25 1.02,2.27 2.27,2.27v0c1.25,0 2.27,-1.02 2.27,-2.27v-3.91c0,-2.51 2.04,-4.55 4.55,-4.55h6.06c2.51,0 4.55,2.04 4.55,4.55v3.91c0,1.25 1.02,2.27 2.27,2.27 1.26,0 2.27,-1.02 2.27,-2.27v-14.52c0,-6.5 -5.43,-11.77 -12.12,-11.77z" />
                <path fill="#ffffff" d="M171.92,216.82h4.04v4.04h-4.04z" />
                <path fill="#ffffff" d="M188.8,275.73h4.04v4.04h-4.04z" />
                <path fill="#ffffff" d="M369.04,337.63h4.04v4.04h-4.04z" />
                <path fill="#ffffff" d="M285.93,252.22h4.04v4.04h-4.04z" />
                <path fill="#ffffff" d="M318.96,218.84h4.04v4.04h-4.04z" />
                <path fill="#ffffff" d="M294.05,288.55h4.04v4.04h-4.04z" />
                <path fill="#ffffff" d="M330.82,273.31h8.08v8.08h-8.08z" />
                <path fill="#ffffff" d="M188.8,298.95h4.04v4.04h-4.04z" />
                <path fill="#ffffff" d="M220.14,238.94h8.08v8.08h-8.08z" />
                <path fill="#ffffff" d="M272.1,318.9h8.08v8.08h-8.08z" />
                <path fill="#ffffff" d="M293.34,349.25h8.08v8.08h-8.08z" />
                <path fill="#ffffff" d="M161.05,254.24h8.08v8.08h-8.08z" />
                <path fill="#ffffff" d="M378.92,192h8.08v8.08h-8.08z" />
                <path fill="#ffffff" d="M137.87,323.7h8.08v8.08h-8.08z" />
            </g>
        </g>
    </g>
</svg>