<svg xmlns="http://www.w3.org/2000/svg" width="108" height="108" viewBox="0 0 108 108">
    <path fill="#202124" d="M0,0h108v108h-108z" />
    <g transform="translate(56,56) scale(1.5,1.5) translate(-56,-56)">
        <g>
            <path fill="#C6FF00" d="M53,42C52.21,50.58 46.46,68.95 32.11,74.63C19.22,79.75 5.77,82.32 1.19,83.19C0.68,83.29 0.28,83.36 0,83.42V108H54H108V83.42C107.72,83.36 107.32,83.29 106.81,83.19C102.23,82.32 88.78,79.75 75.89,74.63C61.5,68.95 55.79,50.58 55,42H54H53Z" fill-rule="evenodd" />
            <path fill="#FFFFFF" d="M53.25,42C52.88,50.53 50.44,69.01 43.68,74.67C36.91,80.33 32.65,82.86 31.57,83.41L54,102.87L76.63,83.41C75.35,82.86 71.09,80.33 64.32,74.67C57.56,69.01 55.12,50.53 54.75,42H54H53.25Z" fill-rule="evenodd" />
            <path fill="#FFFFFF" d="M54,42m-1,0a1,1 0,1 1,2 0a1,1 0,1 1,-2 0" />
        </g>
        <g>
            <path fill="#34A853" d="M54,94.25m-26.25,0a26.25,26.25 0,1 1,52.5 0a26.25,26.25 0,1 1,-52.5 0" />
            <path fill="#000000" d="M38,63.5L44.5,74.5" fill-opacity="0" stroke-linecap="round" stroke="#34A853" stroke-width="5" />
            <path fill="#000000" d="M70,63.5L63.5,74.5" fill-opacity="0" stroke-linecap="round" stroke="#34A853" stroke-width="5" />
        </g>
        <path fill="#E9F3EB" d="M54,34C52.34,34 51,35.29 51,36.88V40.44C51,40.75 51.25,41 51.5,41C51.87,41 52.13,40.75 52.13,40.44V39.48C52.13,38.87 52.63,38.37 53.25,38.37H54.75C55.37,38.37 55.87,38.87 55.87,39.48V40.44C55.87,40.75 56.13,41 56.44,41C56.75,41 57,40.75 57,40.44V36.88C57,35.29 55.66,34 54,34H54Z" />
    </g>
    <g transform="translate(56,56) scale(1.5,1.5) translate(-56,-56)">
        <path fill="#FFFFFF" d="M32,34 h1v1h-1z" />
        <path fill="#FFFFFF" d="M33,61 h1v1h-1z" />
        <path fill="#FFFFFF" d="M71,34 h1v1h-1z" />
        <path fill="#FFFFFF" d="M62,56 h1v1h-1z" />
        <path fill="#FFFFFF" d="M68,47 h1v1h-1z" />
        <path fill="#FFFFFF" d="M72,55 h1v1h-1z" />
        <path fill="#FFFFFF" d="M39,36 h1v1h-1z" />
        <path fill="#FFFFFF" d="M72,49 h2v2h-2z" />
        <path fill="#FFFFFF" d="M46,53 h2v2h-2z" />
        <path fill="#FFFFFF" d="M32,45 h2v2h-2z" />
        <path fill="#FFFFFF" d="M43,37 h2v2h-2z" />
        <path fill="#FFFFFF" d="M78,51 h2v2h-2z" />
        <path fill="#FFFFFF" d="M34,51 h2v2h-2z" />
        <path fill="#FFFFFF" d="M76,41 h2v2h-2z" />
        <path fill="#FFFFFF" d="M39,46 h2v2h-2z" />
    </g>
</svg>